# xmcd
#
# Track frame offsets: 
#        182
#        16440
#        33470
#        47890
#        60905
#        72395
#        105172
#        122572
#        148467
#        175197
#        188732
#        201562
#        223142
#        236317
#        249712
#        261735
#        279007
#        294020
#        311090
#
# Disc length: 4300 seconds
#
# Revision: 1
# Processed by: cddbd v1.4PL0 Copyright (c) Steve Scherf et al.
# Submitted via: ExactAudioCopy v0.90b3
#
DISCID=2110ca13
DTITLE=Hank Williams Jr. - The Bocephus Box: The Hank Williams Jr. Col
DTITLE=lection 1979-1992 - Disc 3 of 3
DYEAR=1992
DGENRE=Country
TTITLE0=Honky Tonk Women (Previously Unissued Live Perfrmance)
TTITLE1=Walk This Way (Previously Unissued Live Perfrmance)
TTITLE2=Heaven Can't Be Found
TTITLE3=Thanks A Lot
TTITLE4=All My Rowdy Friends (Have Settled Down) (Previously Unissued 
TTITLE4=Live Perfrmance - Solo)
TTITLE5=A Country Boy Can Survive (Previously Unissued Live Perfrmance
TTITLE5=)
TTITLE6=You're Gonna Be A Sorry Man
TTITLE7=Tuesday's Gone
TTITLE8=Mannish Boy (Previously Unissued Studio Track)
TTITLE9=Finders Are Keepers
TTITLE10=There's A Tear In My Beer
TTITLE11=Big Mamou
TTITLE12=Man To Man
TTITLE13=Stoned At The Jukebox
TTITLE14=Ain't Nobody's Business
TTITLE15=Lone Wolf
TTITLE16=If It Will It Will
TTITLE17=Hank Williams Jr. and Clint Black - Hotel Whiskey
TTITLE18=Low Down Blues (from the UniStar Broadcast February 14, 1992)
EXTD=
EXTT0=
EXTT1=
EXTT2=
EXTT3=
EXTT4=
EXTT5=
EXTT6=
EXTT7=
EXTT8=
EXTT9=
EXTT10=
EXTT11=
EXTT12=
EXTT13=
EXTT14=
EXTT15=
EXTT16=
EXTT17=
EXTT18=
PLAYORDER=
